<?xml version="1.0" encoding="UTF-8"?>
<svg xmlns="http://www.w3.org/2000/svg" xmlns:xlink="http://www.w3.org/1999/xlink" width="32px" height="32px" viewBox="0 0 32 32" version="1.1">
<g id="surface1">
<path style=" stroke:none;fill-rule:evenodd;fill:rgb(15.294118%,45.882353%,79.215688%);fill-opacity:1;" d="M 16 0 C 24.835938 0 32 7.164062 32 16 C 32 24.835938 24.835938 32 16 32 C 7.164062 32 0 24.835938 0 16 C 0 7.164062 7.164062 0 16 0 Z M 16 0 "/>
<path style=" stroke:none;fill-rule:nonzero;fill:rgb(96.470588%,96.470588%,96.470588%);fill-opacity:1;" d="M 20.09375 19.289062 L 19.175781 18.878906 C 18.976562 18.789062 18.738281 18.875 18.640625 19.074219 C 18.207031 19.949219 17.488281 20.507812 16.542969 20.507812 C 15.683594 20.507812 14.992188 20.085938 14.464844 19.238281 C 14.261719 18.910156 14.09375 18.542969 13.972656 18.140625 L 16.429688 18.140625 C 16.585938 18.140625 16.726562 18.050781 16.796875 17.914062 L 17.382812 17.121094 C 17.523438 16.847656 17.324219 16.523438 17.015625 16.523438 L 13.695312 16.523438 C 13.683594 16.347656 13.679688 16.175781 13.679688 16 C 13.675781 15.824219 13.683594 15.648438 13.691406 15.476562 L 16.429688 15.476562 C 16.585938 15.476562 16.726562 15.390625 16.796875 15.25 L 17.382812 14.460938 C 17.523438 14.183594 17.324219 13.859375 17.015625 13.859375 L 13.96875 13.859375 C 14.414062 12.40625 15.34375 11.453125 16.542969 11.472656 C 17.453125 11.472656 18.160156 11.972656 18.617188 12.792969 C 18.71875 12.972656 18.945312 13.042969 19.140625 12.960938 L 20.058594 12.554688 C 20.277344 12.457031 20.371094 12.191406 20.257812 11.980469 C 19.40625 10.445312 18.167969 9.675781 16.542969 9.675781 C 15.054688 9.675781 13.867188 10.265625 12.964844 11.4375 C 12.433594 12.128906 12.066406 12.9375 11.847656 13.859375 L 10.511719 13.859375 C 10.359375 13.859375 10.214844 13.949219 10.144531 14.085938 L 9.558594 14.878906 C 9.417969 15.152344 9.617188 15.476562 9.925781 15.476562 L 11.628906 15.476562 C 11.621094 15.648438 11.613281 15.820312 11.613281 16 C 11.609375 16.175781 11.613281 16.351562 11.621094 16.523438 L 10.511719 16.523438 C 10.359375 16.523438 10.214844 16.609375 10.144531 16.75 L 9.558594 17.539062 C 9.417969 17.816406 9.617188 18.140625 9.925781 18.140625 L 11.84375 18.140625 C 12.453125 20.648438 14.199219 22.359375 16.542969 22.324219 C 18.203125 22.324219 19.457031 21.496094 20.292969 19.851562 C 20.398438 19.640625 20.304688 19.386719 20.09375 19.289062 Z M 20.09375 19.289062 "/>
<path style=" stroke:none;fill-rule:evenodd;fill:rgb(96.470588%,96.470588%,96.470588%);fill-opacity:1;" d="M 4.566406 12.511719 C 4.453125 12.871094 4.664062 13.167969 5.046875 13.167969 L 5.976562 13.167969 C 6.230469 13.167969 6.519531 12.976562 6.605469 12.738281 C 8.007812 8.90625 11.691406 6.167969 16 6.167969 C 20.308594 6.167969 23.992188 8.90625 25.394531 12.738281 C 25.488281 13 25.746094 13.167969 26.023438 13.167969 L 26.953125 13.167969 C 27.332031 13.167969 27.546875 12.871094 27.433594 12.511719 C 25.886719 7.671875 21.351562 4.167969 16 4.167969 C 10.648438 4.167969 6.113281 7.671875 4.566406 12.511719 Z M 5.046875 19.167969 C 4.667969 19.167969 4.453125 19.460938 4.566406 19.824219 C 6.113281 24.664062 10.648438 28.167969 16 28.167969 C 21.351562 28.167969 25.886719 24.664062 27.433594 19.824219 C 27.546875 19.460938 27.332031 19.167969 26.953125 19.167969 L 26.023438 19.167969 C 25.769531 19.167969 25.480469 19.359375 25.394531 19.597656 C 23.992188 23.425781 20.308594 26.167969 16 26.167969 C 11.691406 26.167969 8.007812 23.425781 6.605469 19.597656 C 6.519531 19.359375 6.230469 19.167969 5.976562 19.167969 Z M 5.046875 19.167969 "/>
</g>
</svg>
